<?xml version="1.0" encoding="utf-8"?>
<!-- Generator: Adobe Illustrator 16.0.0, SVG Export Plug-In . SVG Version: 6.00 Build 0)  -->
<!DOCTYPE svg PUBLIC "-//W3C//DTD SVG 1.1//EN" "http://www.w3.org/Graphics/SVG/1.1/DTD/svg11.dtd">
<svg version="1.1" id="Layer_1" xmlns="http://www.w3.org/2000/svg" xmlns:xlink="http://www.w3.org/1999/xlink" x="0px" y="0px"
	 width="753px" height="266.5px" viewBox="0 0 753 266.5" enable-background="new 0 0 753 266.5" xml:space="preserve">
<g>
	<g>
		<path d="M365.771,65.302c-2.408-10.044,3.954-22.052,14.39-24.555c6.651-1.596,11.967,2.442,13.641,9.42
			c2.392,9.978-3.368,21.912-14.392,24.555C373.347,76.177,367.569,72.804,365.771,65.302z M382.282,70.31
			c1.241-2.298,2.065-6.635,2.627-12.355c0.618-5.183,0.796-10.191,0.2-12.67c-0.594-2.48-1.978-3.941-4.195-3.409
			c-1.695,0.407-2.646,1.324-3.544,3.057c-1.241,2.3-2.132,6.928-2.714,11.687c-0.588,5.313-0.919,10.842-0.231,13.711
			c0.625,2.609,2.227,3.813,4.247,3.328C380.367,73.252,381.271,72.414,382.282,70.31z"/>
		<path d="M384.04,83.96c-0.688-2.871,0.963-5.475,3.638-6.116c2.542-0.609,4.695,0.6,5.29,3.078
			c0.751,3.131-1.538,4.507-1.401,5.371c0.158,0.653,1,0.726,1.851,0.523c2.739-0.656,4.668-3.258,5.547-6.503
			c1.941-7.431,1.151-23.381,1.22-37.191c0.036-2.147,0.195-3.497,0.275-4.895l-6.003,1.439l0.063-1.465l6.002-1.437
			c1.521-12.643,8.095-21.185,15.921-23.062c4.762-1.141,8.406,0.537,9.268,4.124c0.609,2.545-0.8,5.295-3.604,5.968
			c-2.739,0.657-4.956-0.812-5.487-3.029c-0.657-2.741,1.343-4.186,1.156-4.967c-0.111-0.457-0.772-0.643-1.754-0.407
			c-1.76,0.422-3.387,1.984-4.232,3.911c-1.25,2.851-1.892,8.522-1.938,15.225l7.825-1.876l-0.062,1.464l-7.763,1.859
			c-0.041,0.976-0.138,2.584-0.175,4.456c-0.647,25.194-4.894,45.178-16.633,47.993C388.671,89.471,384.898,87.546,384.04,83.96z"/>
	</g>
</g>
<g enable-background="new    ">
	<path d="M139.248,232.106v-38.54h-19.728v38.54h-10.975v-87.01h10.975v38.671h19.728v-38.671h10.843v87.01H139.248z"/>
	<path d="M181.447,233.674c-13.326,0-20.512-9.015-20.512-21.426v-47.294c0-12.28,7.186-21.426,20.512-21.426
		c13.326,0,20.511,9.146,20.511,21.426v47.294C201.958,224.659,194.773,233.674,181.447,233.674z M191.115,163.778
		c0-5.879-3.266-10.32-9.667-10.32c-6.532,0-9.668,4.441-9.668,10.32v49.646c0,6.01,3.136,10.321,9.668,10.321
		c6.401,0,9.667-4.312,9.667-10.321V163.778z"/>
	<path d="M233.708,155.156v76.95h-10.844v-76.95h-14.763v-10.06h40.108v10.06H233.708z"/>
	<path d="M275.516,232.106v-81.915c3.789,0,5.095-2.482,5.095-5.095h5.226v87.01H275.516z"/>
	<path d="M318.369,233.674c-11.889,0-19.597-7.969-19.597-19.857v-50.43c0-11.889,7.708-19.858,19.597-19.858
		c11.758,0,19.466,7.97,19.466,19.858v50.43C337.835,225.705,330.127,233.674,318.369,233.674z M327.645,161.819
		c0-4.703-3.658-8.754-9.276-8.754c-5.749,0-9.407,4.051-9.407,8.754v53.564c0,4.834,3.658,8.753,9.407,8.753
		c5.618,0,9.276-3.919,9.276-8.753V161.819z"/>
	<path d="M367.885,233.674c-11.889,0-19.597-7.969-19.597-19.857v-50.43c0-11.889,7.708-19.858,19.597-19.858
		c11.758,0,19.466,7.97,19.466,19.858v50.43C387.352,225.705,379.644,233.674,367.885,233.674z M377.161,161.819
		c0-4.703-3.658-8.754-9.276-8.754c-5.749,0-9.407,4.051-9.407,8.754v53.564c0,4.834,3.658,8.753,9.407,8.753
		c5.618,0,9.276-3.919,9.276-8.753V161.819z"/>
	<path d="M434.254,233.674c-12.28,0-20.25-8.1-20.25-19.466v-7.97h10.713v6.794c0,7.316,3.397,11.497,9.537,11.497
		c6.402,0,9.537-4.051,9.537-10.06c0-8.101-3.266-13.979-12.149-21.949c-7.97-7.055-16.723-17.114-16.723-28.48
		c0-11.628,6.794-20.512,19.728-20.512c11.758,0,19.336,8.101,19.336,19.598v8.1h-10.321v-6.924c0-6.663-2.874-11.236-9.276-11.236
		c-5.748,0-8.753,3.397-8.753,8.884c0,8.492,3.397,13.457,13.587,22.732c10.061,9.015,15.285,17.246,15.285,27.828
		C454.504,226.619,445.098,233.674,434.254,233.674z"/>
	<path d="M483.379,233.674c-13.326,0-20.512-9.015-20.512-21.426v-47.294c0-12.28,7.186-21.426,20.512-21.426
		c13.325,0,20.511,9.146,20.511,21.426v47.294C503.89,224.659,496.704,233.674,483.379,233.674z M493.046,163.778
		c0-5.879-3.267-10.32-9.667-10.32c-6.533,0-9.668,4.441-9.668,10.32v49.646c0,6.01,3.135,10.321,9.668,10.321
		c6.4,0,9.667-4.312,9.667-10.321V163.778z"/>
	<path d="M548.834,232.106l-18.16-43.244l-5.748-14.632v57.876h-10.321v-87.01h9.276l17.113,43.896l5.357,14.763v-58.659h10.32
		v87.01H548.834z"/>
	<path d="M602.922,232.106l-2.352-5.879c-2.482,4.965-7.709,7.446-14.371,7.446c-11.758,0-18.813-8.361-18.813-20.772v-48.6
		c0-11.497,7.186-20.773,20.512-20.773c13.325,0,19.466,8.492,19.466,20.773v8.491h-10.189v-9.929c0-4.965-2.875-9.406-9.276-9.406
		c-6.532,0-9.668,4.703-9.668,9.537v51.213c0,5.226,3.005,9.799,9.668,9.799c6.532,0,9.667-4.573,9.667-9.799v-16.723h-9.275v-9.275
		h19.728v43.896H602.922z"/>
	<path d="M635.977,233.674c-12.281,0-20.25-8.1-20.25-19.466v-7.97h10.713v6.794c0,7.316,3.396,11.497,9.537,11.497
		c6.401,0,9.537-4.051,9.537-10.06c0-8.101-3.267-13.979-12.15-21.949c-7.969-7.055-16.723-17.114-16.723-28.48
		c0-11.628,6.793-20.512,19.728-20.512c11.759,0,19.335,8.101,19.335,19.598v8.1h-10.32v-6.924c0-6.663-2.875-11.236-9.275-11.236
		c-5.749,0-8.754,3.397-8.754,8.884c0,8.492,3.396,13.457,13.588,22.732c10.059,9.015,15.285,17.246,15.285,27.828
		C656.227,226.619,646.82,233.674,635.977,233.674z"/>
</g>
<g enable-background="new    ">
	<path d="M40.667,95.441l-1.699-5.879c-2.352,4.834-7.316,7.577-12.281,7.577c-11.366,0-18.551-8.23-18.551-19.597V26.33
		c0-10.321,8.623-19.467,21.034-19.467c12.412,0,20.511,9.146,20.511,19.467v14.371H33.873V26.068c0-2.482-1.567-4.05-4.442-4.05
		c-2.744,0-4.311,1.567-4.311,4.05v52.128c0,2.482,1.698,4.312,4.442,4.312c2.874,0,4.572-1.829,4.572-4.312v-14.24h-4.442V52.197
		h20.642v43.244H40.667z"/>
	<path d="M85.347,95.441c-2.613,0-4.05-7.97-4.05-13.456V64.609c0-2.222-1.176-4.573-3.527-4.573h-3.919v35.405H56.997V8.432h23.255
		c8.231,0,16.723,5.226,16.723,16.853V42.66c0,4.312-2.613,8.231-6.924,10.713c4.311,2.352,7.186,6.402,7.186,10.713v16.854
		c0,5.487,1.045,9.93,2.221,14.11v0.392H85.347z M80.905,26.461c0-2.875-1.045-3.92-2.874-3.92h-4.181v24.562h4.181
		c1.829,0,2.874-1.045,2.874-3.919V26.461z"/>
	<path d="M104.293,95.441V8.432h35.405v14.763h-18.683v20.772h12.281v13.587h-12.281v22.603h18.683v15.285H104.293z"/>
	<path d="M169.616,95.441l-1.176-13.979h-9.929l-1.437,13.979h-15.155l12.673-87.01h19.335l12.542,87.01H169.616z M164.129,34.038
		l-3.789,33.837h6.663L164.129,34.038z"/>
	<path d="M213.123,23.717v71.725H196.4V23.717h-12.02V8.432h40.762v15.285H213.123z"/>
	<path d="M229.715,95.441V8.432h35.405v14.763h-18.683v20.772h12.281v13.587h-12.281v22.603h18.683v15.285H229.715z"/>
	<path d="M289.551,97.14c-12.934,0-20.642-7.577-20.642-20.511v-7.578h14.502v8.101c0,3.527,1.829,5.879,5.356,5.879
		c3.397,0,5.095-2.091,5.095-5.749c0-7.055-4.181-12.411-10.06-19.728c-6.533-7.315-14.502-17.768-14.502-28.611
		c0-11.889,6.924-22.079,21.034-22.079c11.235,0,18.813,8.101,18.813,20.381v7.578h-14.502v-8.623c0-3.136-1.829-4.965-4.311-4.965
		c-2.482,0-4.834,1.698-4.834,5.096c0,8.361,4.181,12.02,10.19,19.988c7.055,8.492,14.371,17.638,14.371,28.873
		C310.063,88.909,301.179,97.14,289.551,97.14z"/>
	<path d="M340.375,23.717v71.725h-16.723V23.717h-12.02V8.432h40.762v15.285H340.375z"/>
</g>
<g enable-background="new    ">
	<path d="M463.363,94.774l-1.176-13.979h-9.93l-1.438,13.979h-15.154l12.673-87.01h19.335l12.543,87.01H463.363z M457.876,33.371
		l-3.789,33.837h6.663L457.876,33.371z"/>
	<path d="M484.266,94.774V7.765h16.723v72.116h17.638v14.894H484.266z"/>
	<path d="M523.33,94.774V7.765h16.723v72.116h17.637v14.894H523.33z"/>
	<path d="M604.593,23.05v71.725H587.87V23.05h-12.02V7.765h40.762V23.05H604.593z"/>
	<path d="M621.186,94.774V7.765h16.854v87.01H621.186z"/>
	<path d="M687.814,94.774V32.326l-2.743,20.642l-6.01,41.807h-10.713l-5.487-41.807l-2.482-20.642v62.448h-14.763V7.765h22.079
		l5.356,34.099l1.96,17.637l1.959-17.637l5.227-34.099h21.688v87.01H687.814z"/>
	<path d="M711.464,94.774V7.765h35.405v14.763h-18.683V43.3h12.28v13.587h-12.28v22.603h18.683v15.285H711.464z"/>
</g>
<rect x="221.667" y="117.75" width="331.333" height="6"/>
</svg>
